STARTFONT 2.1
FONT -Adobe-Times-Bold-I-Normal--20-140-100-100-P-98-ISO8859-2
SIZE 14 100 100
FONTBOUNDINGBOX 22 22 -3 -4
COMMENT $XConsortium: timBI14.bdf,v 1.7 95/01/26 17:58:39 gildea Exp $
COMMENT 
COMMENT +
COMMENT  Copyright 1984-1989, 1994 Adobe Systems Incorporated.
COMMENT  Copyright 1988, 1994 Digital Equipment Corporation.
COMMENT
COMMENT  Adobe is a trademark of Adobe Systems Incorporated which may be
COMMENT  registered in certain jurisdictions.
COMMENT  Permission to use these trademarks is hereby granted only in
COMMENT  association with the images described in this file.
COMMENT
COMMENT  Permission to use, copy, modify, distribute and sell this software
COMMENT  and its documentation for any purpose and without fee is hereby
COMMENT  granted, provided that the above copyright notices appear in all
COMMENT  copies and that both those copyright notices and this permission
COMMENT  notice appear in supporting documentation, and that the names of
COMMENT  Adobe Systems and Digital Equipment Corporation not be used in
COMMENT  advertising or publicity pertaining to distribution of the software
COMMENT  without specific, written prior permission.  Adobe Systems and
COMMENT  Digital Equipment Corporation make no representations about the
COMMENT  suitability of this software for any purpose.  It is provided "as
COMMENT  is" without express or implied warranty.
COMMENT -
COMMENT  
COMMENT  Translation to ISO8859-2 by Cub Soft;  Petr.Kolar@vslib.cz
COMMENT  
STARTPROPERTIES 28
FOUNDRY "Adobe"
FAMILY_NAME "Times"
WEIGHT_NAME "Bold"
SLANT "I"
SETWIDTH_NAME "Normal"
ADD_STYLE_NAME ""
PIXEL_SIZE 20
POINT_SIZE 140
RESOLUTION_X 100
RESOLUTION_Y 100
SPACING "P"
AVERAGE_WIDTH 98
CHARSET_REGISTRY "ISO8859"
CHARSET_ENCODING "2"
CAP_HEIGHT 13
X_HEIGHT 9
FONT_ASCENT 16
FONT_DESCENT 4
FACE_NAME "Times Bold Italic"

STARTCHAR space
ENCODING 32
SWIDTH 250 0
DWIDTH 4 0
BBX 1 1 0 0
BITMAP
00
ENDCHAR
STARTCHAR exclam
ENCODING 33
SWIDTH 389 0
DWIDTH 7 0
BBX 6 13 1 0
BITMAP
1c
1c
18
38
38
30
70
60
40
00
00
c0
c0
ENDCHAR
STARTCHAR quotedbl
ENCODING 34
SWIDTH 555 0
DWIDTH 9 0
BBX 7 5 1 8
BITMAP
66
66
cc
cc
88
ENDCHAR
STARTCHAR numbersign
ENCODING 35
SWIDTH 500 0
DWIDTH 9 0
BBX 9 13 0 0
BITMAP
1b00
1b00
1b00
7f80
7f80
3600
3600
3600
ff00
ff00
6c00
6c00
6c00
ENDCHAR
STARTCHAR dollar
ENCODING 36
SWIDTH 500 0
DWIDTH 9 0
BBX 10 16 0 -2
BITMAP
0100
0f40
12c0
3280
3400
3c00
1e00
0f00
0f80
0b80
0980
9180
d300
3e00
2000
2000
ENDCHAR
STARTCHAR percent
ENCODING 37
SWIDTH 833 0
DWIDTH 15 0
BBX 14 13 0 0
BITMAP
3c30
77e0
e460
c4c0
cc80
d980
7138
0374
02e4
04c4
0ccc
08d8
1870
ENDCHAR
STARTCHAR ampersand
ENCODING 38
SWIDTH 778 0
DWIDTH 15 0
BBX 13 13 1 0
BITMAP
0780
0ec0
0e40
0ec0
0780
0e00
3e78
7730
e760
e3c0
e380
f7d8
7cf0
ENDCHAR
STARTCHAR apostrophe
ENCODING 39
SWIDTH 333 0
DWIDTH 5 0
BBX 3 5 2 8
BITMAP
e0
e0
60
40
80
ENDCHAR
STARTCHAR parenleft
ENCODING 40
SWIDTH 333 0
DWIDTH 6 0
BBX 6 16 0 -3
BITMAP
0c
18
30
30
60
60
c0
c0
c0
c0
c0
c0
c0
60
60
30
ENDCHAR
STARTCHAR parenright
ENCODING 41
SWIDTH 333 0
DWIDTH 6 0
BBX 6 16 0 -3
BITMAP
30
18
18
0c
0c
0c
0c
0c
0c
0c
18
18
30
30
60
c0
ENDCHAR
STARTCHAR asterisk
ENCODING 42
SWIDTH 500 0
DWIDTH 10 0
BBX 8 8 1 5
BITMAP
18
18
db
7e
18
7e
db
18
ENDCHAR
STARTCHAR plus
ENCODING 43
SWIDTH 570 0
DWIDTH 10 0
BBX 10 10 0 0
BITMAP
0c00
0c00
0c00
0c00
ffc0
ffc0
0c00
0c00
0c00
0c00
ENDCHAR
STARTCHAR comma
ENCODING 44
SWIDTH 250 0
DWIDTH 5 0
BBX 3 4 0 -2
BITMAP
60
60
20
c0
ENDCHAR
STARTCHAR minus
ENCODING 45
SWIDTH 606 0
DWIDTH 11 0
BBX 8 2 1 4
BITMAP
ff
ff
ENDCHAR
STARTCHAR period
ENCODING 46
SWIDTH 250 0
DWIDTH 4 0
BBX 2 2 0 0
BITMAP
c0
c0
ENDCHAR
STARTCHAR slash
ENCODING 47
SWIDTH 278 0
DWIDTH 6 0
BBX 6 13 0 0
BITMAP
0c
0c
18
18
18
30
30
60
60
60
c0
c0
c0
ENDCHAR
STARTCHAR zero
ENCODING 48
SWIDTH 500 0
DWIDTH 9 0
BBX 8 13 0 0
BITMAP
1e
3b
73
73
e3
e3
e7
c7
c7
ce
ce
5c
78
ENDCHAR
STARTCHAR one
ENCODING 49
SWIDTH 500 0
DWIDTH 9 0
BBX 7 13 0 0
BITMAP
0e
3e
0e
0e
1c
1c
1c
1c
1c
38
38
38
fe
ENDCHAR
STARTCHAR two
ENCODING 50
SWIDTH 500 0
DWIDTH 9 0
BBX 9 13 -1 0
BITMAP
1f00
3f80
2780
0380
0380
0700
0600
0c00
1800
3100
7f00
ff00
fe00
ENDCHAR
STARTCHAR three
ENCODING 51
SWIDTH 500 0
DWIDTH 9 0
BBX 9 13 -1 0
BITMAP
1f00
3780
0380
0380
0700
1c00
1e00
0700
0700
0700
6700
ee00
7c00
ENDCHAR
STARTCHAR four
ENCODING 52
SWIDTH 500 0
DWIDTH 9 0
BBX 8 13 0 0
BITMAP
03
07
0f
1f
16
36
66
ce
ff
ff
0c
1c
1c
ENDCHAR
STARTCHAR five
ENCODING 53
SWIDTH 500 0
DWIDTH 9 0
BBX 8 13 0 0
BITMAP
1f
3f
3e
60
60
7c
0e
0f
07
07
ce
dc
78
ENDCHAR
STARTCHAR six
ENCODING 54
SWIDTH 500 0
DWIDTH 9 0
BBX 8 13 0 0
BITMAP
03
0e
1c
38
70
7c
fe
e3
e3
e7
c7
6e
3c
ENDCHAR
STARTCHAR seven
ENCODING 55
SWIDTH 500 0
DWIDTH 9 0
BBX 9 13 0 0
BITMAP
3f80
3f80
7f80
4300
0600
0e00
1c00
1800
3800
7000
7000
e000
e000
ENDCHAR
STARTCHAR eight
ENCODING 56
SWIDTH 500 0
DWIDTH 9 0
BBX 9 13 0 0
BITMAP
1e00
3b00
7180
7180
3b00
1e00
3e00
7600
c700
c700
c700
ef00
3c00
ENDCHAR
STARTCHAR nine
ENCODING 57
SWIDTH 500 0
DWIDTH 9 0
BBX 9 13 -1 0
BITMAP
1e00
3b00
7180
7180
7180
7380
3380
1f00
0700
0e00
1c00
3800
e000
ENDCHAR
STARTCHAR colon
ENCODING 58
SWIDTH 333 0
DWIDTH 6 0
BBX 4 8 1 0
BITMAP
30
30
00
00
00
00
c0
c0
ENDCHAR
STARTCHAR semicolon
ENCODING 59
SWIDTH 333 0
DWIDTH 7 0
BBX 5 10 0 -2
BITMAP
18
18
00
00
00
00
60
60
20
c0
ENDCHAR
STARTCHAR less
ENCODING 60
SWIDTH 570 0
DWIDTH 12 0
BBX 9 8 1 0
BITMAP
0380
0e00
3800
e000
e000
3800
0e00
0380
ENDCHAR
STARTCHAR equal
ENCODING 61
SWIDTH 570 0
DWIDTH 11 0
BBX 8 5 1 2
BITMAP
ff
ff
00
ff
ff
ENDCHAR
STARTCHAR greater
ENCODING 62
SWIDTH 570 0
DWIDTH 12 0
BBX 9 8 2 0
BITMAP
e000
3800
0e00
0380
0380
0e00
3800
e000
ENDCHAR
STARTCHAR question
ENCODING 63
SWIDTH 500 0
DWIDTH 9 0
BBX 7 13 2 0
BITMAP
3c
66
66
0e
1e
3c
30
60
60
40
00
c0
c0
ENDCHAR
STARTCHAR at
ENCODING 64
SWIDTH 832 0
DWIDTH 17 0
BBX 15 15 1 -3
BITMAP
03e0
0f38
1c0c
3804
71d6
6372
e672
c462
cc66
cce4
efec
6738
7000
3c30
0fc0
ENDCHAR
STARTCHAR A
ENCODING 65
SWIDTH 667 0
DWIDTH 13 0
BBX 14 13 -1 0
BITMAP
00c0
01c0
01c0
03e0
02e0
0660
0c70
0c70
1ff0
1870
3038
7038
f87c
ENDCHAR
STARTCHAR B
ENCODING 66
SWIDTH 667 0
DWIDTH 13 0
BBX 12 13 0 0
BITMAP
3fe0
1cf0
1c70
1c70
1860
3fc0
38e0
3870
3070
7070
70f0
71e0
ff80
ENDCHAR
STARTCHAR C
ENCODING 67
SWIDTH 667 0
DWIDTH 13 0
BBX 12 13 1 0
BITMAP
07d0
1e70
3830
7030
7000
6000
e000
e000
e000
f000
7060
7dc0
1f00
ENDCHAR
STARTCHAR D
ENCODING 68
SWIDTH 722 0
DWIDTH 14 0
BBX 13 13 0 0
BITMAP
3f80
1de0
1c70
1c70
3838
3838
3838
3838
7070
70f0
70e0
73c0
ff00
ENDCHAR
STARTCHAR E
ENCODING 69
SWIDTH 667 0
DWIDTH 12 0
BBX 12 13 0 0
BITMAP
3ff0
1c70
1c20
1c20
3880
3980
3f80
3980
3100
7020
7060
70e0
ffc0
ENDCHAR
STARTCHAR F
ENCODING 70
SWIDTH 667 0
DWIDTH 12 0
BBX 12 13 0 0
BITMAP
3ff0
1c70
1c20
1c20
1880
3980
3f80
3980
3100
7000
7000
7000
f800
ENDCHAR
STARTCHAR G
ENCODING 71
SWIDTH 722 0
DWIDTH 14 0
BBX 12 13 1 0
BITMAP
07d0
1e70
3830
7030
7000
6000
e000
e1f0
e0e0
f0e0
70c0
7dc0
1fc0
ENDCHAR
STARTCHAR H
ENCODING 72
SWIDTH 778 0
DWIDTH 15 0
BBX 15 13 0 0
BITMAP
3e3e
1c1c
1c1c
1c1c
3838
3838
3ff8
3838
3838
7070
7070
7070
f8f8
ENDCHAR
STARTCHAR I
ENCODING 73
SWIDTH 389 0
DWIDTH 7 0
BBX 7 13 0 0
BITMAP
3e
1c
1c
1c
38
38
38
38
70
70
70
70
f8
ENDCHAR
STARTCHAR J
ENCODING 74
SWIDTH 500 0
DWIDTH 9 0
BBX 10 14 -1 -1
BITMAP
07c0
0380
0380
0300
0700
0700
0700
0600
0e00
0e00
0e00
ec00
fc00
7000
ENDCHAR
STARTCHAR K
ENCODING 75
SWIDTH 667 0
DWIDTH 12 0
BBX 14 13 -1 0
BITMAP
3e7c
1c30
1c60
1cc0
3980
3f00
3f00
3b80
3b80
71c0
71c0
70e0
f9f0
ENDCHAR
STARTCHAR L
ENCODING 76
SWIDTH 611 0
DWIDTH 11 0
BBX 11 13 0 0
BITMAP
3e00
1c00
1c00
1c00
3800
3800
3800
3800
3000
7060
7060
71c0
ffc0
ENDCHAR
STARTCHAR M
ENCODING 77
SWIDTH 889 0
DWIDTH 17 0
BBX 18 13 0 0
BITMAP
3e0fc0
1e0f80
1e1f00
1e1700
1f3600
372600
376e00
374e00
33cc00
638c00
639c00
631c00
f23e00
ENDCHAR
STARTCHAR N
ENCODING 78
SWIDTH 722 0
DWIDTH 13 0
BBX 15 13 -1 0
BITMAP
3c1e
1c0c
1e0c
1e0c
1b18
3398
3398
31d8
31d0
60f0
60f0
6060
f060
ENDCHAR
STARTCHAR O
ENCODING 79
SWIDTH 722 0
DWIDTH 14 0
BBX 12 13 1 0
BITMAP
07c0
1ee0
3870
7070
7070
e070
e070
e070
e0e0
e0e0
e1c0
7780
3e00
ENDCHAR
STARTCHAR P
ENCODING 80
SWIDTH 611 0
DWIDTH 11 0
BBX 12 13 0 0
BITMAP
3fe0
1cf0
1c70
1c70
3870
38e0
3fc0
3800
3000
7000
7000
7000
f800
ENDCHAR
STARTCHAR Q
ENCODING 81
SWIDTH 722 0
DWIDTH 14 0
BBX 12 16 1 -3
BITMAP
07c0
1ee0
3870
7070
7070
e070
e070
e070
e0e0
e0e0
e1c0
7780
3e20
1860
7fc0
c780
ENDCHAR
STARTCHAR R
ENCODING 82
SWIDTH 667 0
DWIDTH 12 0
BBX 12 13 0 0
BITMAP
3fe0
1cf0
1c70
1c70
3870
38e0
3fc0
3f80
3b80
71c0
71c0
70e0
f8f0
ENDCHAR
STARTCHAR S
ENCODING 83
SWIDTH 556 0
DWIDTH 11 0
BBX 10 13 0 0
BITMAP
0f40
1dc0
38c0
38c0
3c00
1e00
0f00
0f80
0780
c380
c380
e700
fe00
ENDCHAR
STARTCHAR T
ENCODING 84
SWIDTH 611 0
DWIDTH 11 0
BBX 11 13 1 0
BITMAP
ffe0
ce60
8e20
0e00
1c00
1c00
1c00
1c00
1800
3800
3800
3800
7c00
ENDCHAR
STARTCHAR U
ENCODING 85
SWIDTH 722 0
DWIDTH 14 0
BBX 14 13 1 0
BITMAP
7e7c
3838
3830
7830
7060
7060
7060
f060
e0c0
e0c0
e0c0
f180
7f00
ENDCHAR
STARTCHAR V
ENCODING 86
SWIDTH 667 0
DWIDTH 13 0
BBX 12 13 2 0
BITMAP
f9f0
70e0
70c0
7180
7180
7300
7600
7600
7c00
7800
7800
7000
6000
ENDCHAR
STARTCHAR W
ENCODING 87
SWIDTH 889 0
DWIDTH 17 0
BBX 17 13 1 0
BITMAP
f3e780
71c300
71c600
71c400
71cc00
73c800
73d800
75d000
3cf000
38e000
38e000
30c000
30c000
ENDCHAR
STARTCHAR X
ENCODING 88
SWIDTH 667 0
DWIDTH 13 0
BBX 15 13 -1 0
BITMAP
3f3e
0e18
0e30
0760
07c0
0380
0380
07c0
0dc0
19c0
30e0
60e0
f1f8
ENDCHAR
STARTCHAR Y
ENCODING 89
SWIDTH 611 0
DWIDTH 11 0
BBX 12 13 0 0
BITMAP
f8f0
7060
70c0
3980
3b00
1e00
1c00
1c00
1c00
3800
3800
3800
fe00
ENDCHAR
STARTCHAR Z
ENCODING 90
SWIDTH 611 0
DWIDTH 11 0
BBX 13 13 -1 0
BITMAP
1ff8
38f0
20e0
01c0
0380
0700
0f00
0e00
1c00
3820
7060
f0e0
ffc0
ENDCHAR
STARTCHAR bracketleft
ENCODING 91
SWIDTH 333 0
DWIDTH 6 0
BBX 8 16 -1 -3
BITMAP
0f
0c
18
18
18
18
30
30
30
30
60
60
60
60
c0
f0
ENDCHAR
STARTCHAR backslash
ENCODING 92
SWIDTH 278 0
DWIDTH 8 0
BBX 6 13 1 0
BITMAP
c0
c0
60
60
60
30
30
18
18
18
0c
0c
0c
ENDCHAR
STARTCHAR bracketright
ENCODING 93
SWIDTH 333 0
DWIDTH 6 0
BBX 8 16 -2 -3
BITMAP
0f
03
06
06
06
06
0c
0c
0c
0c
18
18
18
18
30
f0
ENDCHAR
STARTCHAR asciicircum
ENCODING 94
SWIDTH 570 0
DWIDTH 11 0
BBX 9 8 1 5
BITMAP
0800
1c00
1c00
3600
6300
6300
c180
c180
ENDCHAR
STARTCHAR underscore
ENCODING 95
SWIDTH 500 0
DWIDTH 9 0
BBX 9 1 0 -3
BITMAP
ff80
ENDCHAR
STARTCHAR grave
ENCODING 96
SWIDTH 333 0
DWIDTH 6 0
BBX 5 3 1 10
BITMAP
e0
70
18
ENDCHAR
STARTCHAR a
ENCODING 97
SWIDTH 500 0
DWIDTH 10 0
BBX 10 9 0 0
BITMAP
1e80
7b80
7380
e380
e300
e700
e700
6f40
3b80
ENDCHAR
STARTCHAR b
ENCODING 98
SWIDTH 500 0
DWIDTH 9 0
BBX 10 14 -1 0
BITMAP
3c00
1c00
1c00
1800
1800
3b80
3dc0
39c0
39c0
39c0
7180
7380
7300
fc00
ENDCHAR
STARTCHAR c
ENCODING 99
SWIDTH 444 0
DWIDTH 8 0
BBX 8 9 0 0
BITMAP
1f
7b
60
e0
e0
e0
e0
76
3c
ENDCHAR
STARTCHAR d
ENCODING 100
SWIDTH 500 0
DWIDTH 9 0
BBX 10 14 0 0
BITMAP
03c0
01c0
01c0
0180
0380
1b80
7780
6380
e300
e300
e700
e700
ef40
7b80
ENDCHAR
STARTCHAR e
ENCODING 101
SWIDTH 444 0
DWIDTH 9 0
BBX 8 9 0 0
BITMAP
1e
77
67
e7
ee
f8
e3
f6
7c
ENDCHAR
STARTCHAR f
ENCODING 102
SWIDTH 333 0
DWIDTH 6 0
BBX 11 18 -2 -4
BITMAP
03c0
0760
0660
0e00
0e00
3f80
0e00
0e00
0e00
0c00
1c00
1c00
1c00
1800
1800
d800
d800
7000
ENDCHAR
STARTCHAR g
ENCODING 103
SWIDTH 500 0
DWIDTH 8 0
BBX 10 13 -1 -4
BITMAP
1f40
3b80
7180
6180
6380
7700
3e00
7000
3e00
6f80
c380
c300
7e00
ENDCHAR
STARTCHAR h
ENCODING 104
SWIDTH 556 0
DWIDTH 11 0
BBX 10 14 1 0
BITMAP
7800
3800
3800
3000
7000
7700
7f80
7380
7380
6380
e700
e700
e740
e380
ENDCHAR
STARTCHAR i
ENCODING 105
SWIDTH 278 0
DWIDTH 5 0
BBX 5 14 0 0
BITMAP
30
30
30
00
00
f0
70
70
60
60
e0
e0
e8
70
ENDCHAR
STARTCHAR j
ENCODING 106
SWIDTH 278 0
DWIDTH 4 0
BBX 7 18 -3 -4
BITMAP
06
06
06
00
00
1e
0e
0e
0e
0c
1c
1c
1c
18
18
d8
f0
60
ENDCHAR
STARTCHAR k
ENCODING 107
SWIDTH 500 0
DWIDTH 9 0
BBX 10 14 -1 0
BITMAP
3c00
1c00
1c00
1800
3800
3bc0
3380
3600
7c00
7c00
7400
7600
e780
e700
ENDCHAR
STARTCHAR l
ENCODING 108
SWIDTH 278 0
DWIDTH 5 0
BBX 5 14 0 0
BITMAP
78
38
38
30
70
70
70
70
60
e0
e0
e0
e8
70
ENDCHAR
STARTCHAR m
ENCODING 109
SWIDTH 778 0
DWIDTH 14 0
BBX 14 9 0 0
BITMAP
f770
7bb8
7338
7338
7338
f230
e670
e674
e678
ENDCHAR
STARTCHAR n
ENCODING 110
SWIDTH 556 0
DWIDTH 10 0
BBX 10 9 0 0
BITMAP
f700
7b80
7380
7380
7380
6300
e700
e740
e380
ENDCHAR
STARTCHAR o
ENCODING 111
SWIDTH 500 0
DWIDTH 10 0
BBX 9 9 0 0
BITMAP
1f00
7380
6380
e380
e380
e380
e300
e700
7c00
ENDCHAR
STARTCHAR p
ENCODING 112
SWIDTH 500 0
DWIDTH 9 0
BBX 11 13 -2 -4
BITMAP
3bc0
1ee0
1ce0
1ce0
1ce0
38c0
39c0
3980
3700
3000
7000
7000
f800
ENDCHAR
STARTCHAR q
ENCODING 113
SWIDTH 500 0
DWIDTH 9 0
BBX 9 13 0 -4
BITMAP
1d80
7780
6380
e380
c300
c700
e700
ff00
3600
0600
0e00
0e00
1f00
ENDCHAR
STARTCHAR r
ENCODING 114
SWIDTH 389 0
DWIDTH 6 0
BBX 7 9 0 0
BITMAP
ee
7e
70
70
70
60
e0
e0
e0
ENDCHAR
STARTCHAR s
ENCODING 115
SWIDTH 389 0
DWIDTH 7 0
BBX 8 9 -1 0
BITMAP
3e
77
72
38
1c
1c
4e
ee
7c
ENDCHAR
STARTCHAR t
ENCODING 116
SWIDTH 278 0
DWIDTH 6 0
BBX 6 11 0 0
BITMAP
30
70
fc
70
70
70
60
e0
e0
e8
70
ENDCHAR
STARTCHAR u
ENCODING 117
SWIDTH 556 0
DWIDTH 10 0
BBX 10 9 0 0
BITMAP
f380
7380
7380
6300
6700
e700
ef00
fb40
7380
ENDCHAR
STARTCHAR v
ENCODING 118
SWIDTH 444 0
DWIDTH 7 0
BBX 8 9 -1 0
BITMAP
e7
63
73
72
32
36
3c
38
30
ENDCHAR
STARTCHAR w
ENCODING 119
SWIDTH 667 0
DWIDTH 11 0
BBX 12 9 -1 0
BITMAP
e330
6330
6330
77a0
77a0
35a0
3dc0
3980
1080
ENDCHAR
STARTCHAR x
ENCODING 120
SWIDTH 500 0
DWIDTH 9 0
BBX 9 9 0 0
BITMAP
7b80
3b00
1e00
1c00
1c00
3c00
6e00
ce80
e700
ENDCHAR
STARTCHAR y
ENCODING 121
SWIDTH 444 0
DWIDTH 7 0
BBX 9 13 -2 -4
BITMAP
7b80
3980
3980
3980
1900
1b00
1e00
0e00
0c00
0c00
c800
d800
7000
ENDCHAR
STARTCHAR z
ENCODING 122
SWIDTH 389 0
DWIDTH 7 0
BBX 7 10 0 -1
BITMAP
3e
7e
4c
18
18
30
60
e6
f6
1c
ENDCHAR
STARTCHAR braceleft
ENCODING 123
SWIDTH 348 0
DWIDTH 6 0
BBX 7 17 0 -3
BITMAP
0e
18
30
30
30
30
60
c0
60
60
60
60
c0
c0
c0
c0
70
ENDCHAR
STARTCHAR bar
ENCODING 124
SWIDTH 220 0
DWIDTH 6 0
BBX 2 17 2 -3
BITMAP
c0
c0
c0
c0
c0
c0
c0
c0
c0
c0
c0
c0
c0
c0
c0
c0
c0
ENDCHAR
STARTCHAR braceright
ENCODING 125
SWIDTH 348 0
DWIDTH 7 0
BBX 7 17 -1 -3
BITMAP
1c
06
06
06
06
0c
0c
0c
06
06
0c
18
18
18
18
30
e0
ENDCHAR
STARTCHAR asciitilde
ENCODING 126
SWIDTH 570 0
DWIDTH 10 0
BBX 8 4 1 4
BITMAP
71
ff
8e
8e
ENDCHAR
STARTCHAR nobreakspace
ENCODING 160
SWIDTH 250 0
DWIDTH 4 0
BBX 1 1 0 0
BITMAP
00
ENDCHAR
STARTCHAR Aogonek
ENCODING 161
SWIDTH 667 0
DWIDTH 13 0
BBX 14 17 -1 -4
BITMAP
00c0
01c0
01c0
03e0
02e0
0660
0c70
0c70
1ff0
1870
3038
7038
f87c
0600
0c00
0f80
0600
ENDCHAR
STARTCHAR breve
ENCODING 162
SWIDTH 333 0
DWIDTH 6 0
BBX 5 3 1 10
BITMAP
88
d8
70
ENDCHAR
STARTCHAR Lstroke
ENCODING 163
SWIDTH 611 0
DWIDTH 11 0
BBX 11 13 0 0
BITMAP
3e00
1c00
1c00
1800
3a00
3c00
3800
7800
f000
7060
7060
71c0
ffc0
ENDCHAR
STARTCHAR currency
ENCODING 164
SWIDTH 500 0
DWIDTH 9 0
BBX 8 9 0 1
BITMAP
c3
7e
e7
c3
c3
c3
e7
7e
c3
ENDCHAR
STARTCHAR Lcaron
ENCODING 165
SWIDTH 611 0
DWIDTH 11 0
BBX 11 14 0 0
BITMAP
00e0
3ee0
1c60
1c40
1c80
3800
3800
3800
3800
3000
7060
7060
71c0
ffc0
ENDCHAR
STARTCHAR Sacute
ENCODING 166
SWIDTH 556 0
DWIDTH 11 0
BBX 11 17 0 0
BITMAP
00e0
01c0
0300
0000
0f40
1dc0
38c0
38c0
3c00
1e00
0f00
0f80
0780
c380
c380
e700
fe00
ENDCHAR
STARTCHAR section
ENCODING 167
SWIDTH 500 0
DWIDTH 9 0
BBX 9 16 0 -3
BITMAP
0f00
1b80
1380
1800
1c00
2e00
6700
6300
6300
7300
3a00
1c00
0c00
e400
ec00
7800
ENDCHAR
STARTCHAR diaeresis
ENCODING 168
SWIDTH 333 0
DWIDTH 7 0
BBX 6 2 1 11
BITMAP
cc
cc
ENDCHAR
STARTCHAR Scaron
ENCODING 169
SWIDTH 556 0
DWIDTH 11 0
BBX 10 17 0 0
BITMAP
0cc0
0780
0300
0000
0f40
1dc0
38c0
38c0
3c00
1e00
0f00
0f80
0780
c380
c380
e700
fe00
ENDCHAR
STARTCHAR Scedilla
ENCODING 170
SWIDTH 556 0
DWIDTH 11 0
BBX 10 17 0 -4
BITMAP
0f40
1dc0
38c0
38c0
3c00
1e00
0f00
0f80
0780
c380
c380
e700
fe00
0c00
0e00
2600
1c00
ENDCHAR
STARTCHAR Tcaron
ENCODING 171
SWIDTH 611 0
DWIDTH 11 0
BBX 11 17 1 0
BITMAP
1980
0f00
0600
0000
ffe0
ce60
8e20
0e00
1c00
1c00
1c00
1c00
1800
3800
3800
3800
7c00
ENDCHAR
STARTCHAR Zacute
ENCODING 172
SWIDTH 611 0
DWIDTH 11 0
BBX 13 17 -1 0
BITMAP
0070
00e0
0180
0000
1ff8
38f0
20e0
01c0
0380
0700
0f00
0e00
1c00
3820
7060
f0e0
ffc0
ENDCHAR
STARTCHAR hyphen
ENCODING 173
SWIDTH 333 0
DWIDTH 6 0
BBX 5 2 0 4
BITMAP
f8
f8
ENDCHAR
STARTCHAR Zcaron
ENCODING 174
SWIDTH 611 0
DWIDTH 11 0
BBX 13 17 -1 0
BITMAP
0660
03c0
0180
0000
1ff8
38f0
20e0
01c0
0380
0700
0f00
0e00
1c00
3820
7060
f0e0
ffc0
ENDCHAR
STARTCHAR Zabovedot
ENCODING 175
SWIDTH 611 0
DWIDTH 11 0
BBX 13 16 -1 0
BITMAP
0180
0180
0000
1ff8
38f0
20e0
01c0
0380
0700
0f00
0e00
1c00
3820
7060
f0e0
ffc0
ENDCHAR
STARTCHAR degree
ENCODING 176
SWIDTH 400 0
DWIDTH 7 0
BBX 6 5 1 8
BITMAP
78
cc
cc
cc
78
ENDCHAR
STARTCHAR aogonek
ENCODING 177
SWIDTH 500 0
DWIDTH 10 0
BBX 10 13 0 -4
BITMAP
1e80
7b80
7380
e380
e300
e700
e700
6f40
3b80
1800
3000
3e00
1800
ENDCHAR
STARTCHAR ogonek
ENCODING 178
SWIDTH 333 0
DWIDTH 6 0
BBX 5 4 0 -4
BITMAP
60
c0
f8
60
ENDCHAR
STARTCHAR lstroke
ENCODING 179
SWIDTH 278 0
DWIDTH 6 0
BBX 7 13 0 0
BITMAP
3c
1c
1c
18
3a
3c
78
f8
30
70
70
74
38
ENDCHAR
STARTCHAR acute
ENCODING 180
SWIDTH 333 0
DWIDTH 6 0
BBX 5 3 1 10
BITMAP
38
70
c0
ENDCHAR
STARTCHAR lcaron
ENCODING 181
SWIDTH 462 0
DWIDTH 9 0
BBX 9 15 0 0
BITMAP
0380
7b80
3980
3900
3200
7000
7000
7000
7000
6000
e000
e000
e000
e800
7000
ENDCHAR
STARTCHAR sacute
ENCODING 182
SWIDTH 389 0
DWIDTH 7 0
BBX 9 13 -1 0
BITMAP
0380
0700
0c00
0000
3e00
7700
7200
3800
1c00
1c00
4e00
ee00
7c00
ENDCHAR
STARTCHAR caron
ENCODING 183
SWIDTH 333 0
DWIDTH 6 0
BBX 6 3 1 10
BITMAP
cc
78
30
ENDCHAR
STARTCHAR cedilla
ENCODING 184
SWIDTH 333 0
DWIDTH 6 0
BBX 5 4 -1 -4
BITMAP
30
38
98
70
ENDCHAR
STARTCHAR scaron
ENCODING 185
SWIDTH 389 0
DWIDTH 7 0
BBX 8 13 -1 0
BITMAP
33
1e
0c
00
3e
77
72
38
1c
1c
4e
ee
7c
ENDCHAR
STARTCHAR scedilla
ENCODING 186
SWIDTH 389 0
DWIDTH 7 0
BBX 8 13 -1 -4
BITMAP
3e
77
72
38
1c
1c
4e
ee
7c
18
1c
4c
38
ENDCHAR
STARTCHAR tcaron
ENCODING 187
SWIDTH 411 0
DWIDTH 8 0
BBX 8 15 0 0
BITMAP
07
07
03
02
34
70
fc
70
70
70
60
e0
e0
e8
70
ENDCHAR
STARTCHAR zacute
ENCODING 188
SWIDTH 389 0
DWIDTH 7 0
BBX 9 14 0 -1
BITMAP
0380
0700
0c00
0000
3e00
7e00
4c00
1800
1800
3000
6000
e600
f600
1c00
ENDCHAR
STARTCHAR doubleacute
ENCODING 189
SWIDTH 333 0
DWIDTH 8 0
BBX 8 3 1 10
BITMAP
77
66
cc
ENDCHAR
STARTCHAR zcaron
ENCODING 190
SWIDTH 389 0
DWIDTH 7 0
BBX 8 14 0 -1
BITMAP
33
1e
0c
00
3e
7e
4c
18
18
30
60
e6
f6
1c
ENDCHAR
STARTCHAR zabovedot
ENCODING 191
SWIDTH 389 0
DWIDTH 7 0
BBX 7 13 0 -1
BITMAP
0c
0c
00
3e
7e
4c
18
18
30
60
e6
f6
1c
ENDCHAR
STARTCHAR Racute
ENCODING 192
SWIDTH 667 0
DWIDTH 12 0
BBX 12 17 0 0
BITMAP
0070
00e0
0180
0000
3fe0
1cf0
1c70
1c70
3870
38e0
3fc0
3f80
3b80
71c0
71c0
70e0
f8f0
ENDCHAR
STARTCHAR Aacute
ENCODING 193
SWIDTH 667 0
DWIDTH 13 0
BBX 14 17 -1 0
BITMAP
0038
0070
00c0
0000
00c0
01c0
01c0
03e0
02e0
0660
0c70
0c70
1ff0
1870
3038
7038
f87c
ENDCHAR
STARTCHAR Acircumflex
ENCODING 194
SWIDTH 667 0
DWIDTH 13 0
BBX 14 17 -1 0
BITMAP
00c0
01e0
0330
0000
00c0
01c0
01c0
03e0
02e0
0660
0c70
0c70
1ff0
1870
3038
7038
f87c
ENDCHAR
STARTCHAR Abreve
ENCODING 195
SWIDTH 667 0
DWIDTH 13 0
BBX 14 17 -1 0
BITMAP
0220
0360
01c0
0000
00c0
01c0
01c0
03e0
02e0
0660
0c70
0c70
1ff0
1870
3038
7038
f87c
ENDCHAR
STARTCHAR Adiaeresis
ENCODING 196
SWIDTH 667 0
DWIDTH 13 0
BBX 14 16 -1 0
BITMAP
0330
0330
0000
00c0
01c0
01c0
03e0
02e0
0660
0c70
0c70
1ff0
1870
3038
7038
f87c
ENDCHAR
STARTCHAR Lacute
ENCODING 197
SWIDTH 611 0
DWIDTH 11 0
BBX 11 17 0 0
BITMAP
0380
0700
0c00
0000
3e00
1c00
1c00
1c00
3800
3800
3800
3800
3000
7060
7060
71c0
ffc0
ENDCHAR
STARTCHAR Cacute
ENCODING 198
SWIDTH 667 0
DWIDTH 13 0
BBX 12 17 1 0
BITMAP
0070
00e0
0180
0000
07d0
1e70
3830
7030
7000
6000
e000
e000
e000
f000
7060
7dc0
1f00
ENDCHAR
STARTCHAR Ccedilla
ENCODING 199
SWIDTH 667 0
DWIDTH 13 0
BBX 12 17 1 -4
BITMAP
07d0
1e70
3830
7030
7000
6000
e000
e000
e000
f000
7060
7dc0
1f00
0600
0700
1300
0e00
ENDCHAR
STARTCHAR Ccaron
ENCODING 200
SWIDTH 667 0
DWIDTH 13 0
BBX 12 17 1 0
BITMAP
0660
03c0
0180
0000
07d0
1e70
3830
7030
7000
6000
e000
e000
e000
f000
7060
7dc0
1f00
ENDCHAR
STARTCHAR Eacute
ENCODING 201
SWIDTH 667 0
DWIDTH 12 0
BBX 12 17 0 0
BITMAP
00e0
01c0
0300
0000
3ff0
1c70
1c20
1c20
3880
3980
3f80
3980
3100
7020
7060
70e0
ffc0
ENDCHAR
STARTCHAR Eogonek
ENCODING 202
SWIDTH 667 0
DWIDTH 12 0
BBX 12 17 0 -4
BITMAP
3ff0
1c70
1c20
1c20
3880
3980
3f80
3980
3100
7020
7060
70e0
ffc0
0c00
1800
1f00
0c00
ENDCHAR
STARTCHAR Ediaeresis
ENCODING 203
SWIDTH 667 0
DWIDTH 12 0
BBX 12 16 0 0
BITMAP
0660
0660
0000
3ff0
1c70
1c20
1c20
3880
3980
3f80
3980
3100
7020
7060
70e0
ffc0
ENDCHAR
STARTCHAR Ecaron
ENCODING 204
SWIDTH 667 0
DWIDTH 12 0
BBX 12 17 0 0
BITMAP
0660
03c0
0180
0000
3ff0
1c70
1c20
1c20
3880
3980
3f80
3980
3100
7020
7060
70e0
ffc0
ENDCHAR
STARTCHAR Iacute
ENCODING 205
SWIDTH 389 0
DWIDTH 7 0
BBX 8 17 0 0
BITMAP
07
0e
18
00
3e
1c
1c
1c
38
38
38
38
70
70
70
70
f8
ENDCHAR
STARTCHAR Icircumflex
ENCODING 206
SWIDTH 389 0
DWIDTH 7 0
BBX 8 17 0 0
BITMAP
0c
1e
33
00
3e
1c
1c
1c
38
38
38
38
70
70
70
70
f8
ENDCHAR
STARTCHAR Dcaron
ENCODING 207
SWIDTH 722 0
DWIDTH 14 0
BBX 13 17 0 0
BITMAP
0660
03c0
0180
0000
3f80
1de0
1c70
1c70
3838
3838
3838
3838
7070
70f0
70e0
73c0
ff00
ENDCHAR
STARTCHAR Dstroke
ENCODING 208
SWIDTH 722 0
DWIDTH 14 0
BBX 13 13 0 0
BITMAP
3f80
1de0
1c70
1c70
3838
ff38
ff38
3838
7070
70f0
70e0
73c0
ff00
ENDCHAR
STARTCHAR Nacute
ENCODING 209
SWIDTH 722 0
DWIDTH 13 0
BBX 15 17 -1 0
BITMAP
0038
0070
00c0
0000
3c1e
1c0c
1e0c
1e0c
1b18
3398
3398
31d8
31d0
60f0
60f0
6060
f060
ENDCHAR
STARTCHAR Ncaron
ENCODING 210
SWIDTH 722 0
DWIDTH 13 0
BBX 15 17 -1 0
BITMAP
0330
01e0
00c0
0000
3c1e
1c0c
1e0c
1e0c
1b18
3398
3398
31d8
31d0
60f0
60f0
6060
f060
ENDCHAR
STARTCHAR Oacute
ENCODING 211
SWIDTH 722 0
DWIDTH 14 0
BBX 12 17 1 0
BITMAP
0070
00e0
0180
0000
07c0
1ee0
3870
7070
7070
e070
e070
e070
e0e0
e0e0
e1c0
7780
3e00
ENDCHAR
STARTCHAR Ocircumflex
ENCODING 212
SWIDTH 722 0
DWIDTH 14 0
BBX 12 17 1 0
BITMAP
0180
03c0
0660
0000
07c0
1ee0
3870
7070
7070
e070
e070
e070
e0e0
e0e0
e1c0
7780
3e00
ENDCHAR
STARTCHAR Odoubleacute
ENCODING 213
SWIDTH 722 0
DWIDTH 14 0
BBX 13 17 1 0
BITMAP
03b8
0330
0660
0000
07c0
1ee0
3870
7070
7070
e070
e070
e070
e0e0
e0e0
e1c0
7780
3e00
ENDCHAR
STARTCHAR Odiaeresis
ENCODING 214
SWIDTH 722 0
DWIDTH 14 0
BBX 12 16 1 0
BITMAP
0660
0660
0000
07c0
1ee0
3870
7070
7070
e070
e070
e070
e0e0
e0e0
e1c0
7780
3e00
ENDCHAR
STARTCHAR multiply
ENCODING 215
SWIDTH 570 0
DWIDTH 10 0
BBX 11 10 0 0
BITMAP
c060
60c0
3180
1b00
0e00
0e00
1b00
3180
60c0
c060
ENDCHAR
STARTCHAR Rcaron
ENCODING 216
SWIDTH 667 0
DWIDTH 12 0
BBX 12 17 0 0
BITMAP
0660
03c0
0180
0000
3fe0
1cf0
1c70
1c70
3870
38e0
3fc0
3f80
3b80
71c0
71c0
70e0
f8f0
ENDCHAR
STARTCHAR Uring
ENCODING 217
SWIDTH 722 0
DWIDTH 14 0
BBX 14 18 1 0
BITMAP
0380
06c0
06c0
0380
0000
7e7c
3838
3830
7830
7060
7060
7060
f060
e0c0
e0c0
e0c0
f180
7f00
ENDCHAR
STARTCHAR Uacute
ENCODING 218
SWIDTH 722 0
DWIDTH 14 0
BBX 14 17 1 0
BITMAP
0070
00e0
0180
0000
7e7c
3838
3830
7830
7060
7060
7060
f060
e0c0
e0c0
e0c0
f180
7f00
ENDCHAR
STARTCHAR Udoubleacute
ENCODING 219
SWIDTH 722 0
DWIDTH 14 0
BBX 14 17 1 0
BITMAP
03b8
0330
0660
0000
7e7c
3838
3830
7830
7060
7060
7060
f060
e0c0
e0c0
e0c0
f180
7f00
ENDCHAR
STARTCHAR Udiaeresis
ENCODING 220
SWIDTH 722 0
DWIDTH 14 0
BBX 14 16 1 0
BITMAP
0660
0660
0000
7e7c
3838
3830
7830
7060
7060
7060
f060
e0c0
e0c0
e0c0
f180
7f00
ENDCHAR
STARTCHAR Yacute
ENCODING 221
SWIDTH 611 0
DWIDTH 11 0
BBX 12 17 0 0
BITMAP
01c0
0380
0600
0000
f8f0
7060
70c0
3980
3b00
1e00
1c00
1c00
1c00
3800
3800
3800
fe00
ENDCHAR
STARTCHAR Tcedilla
ENCODING 222
SWIDTH 611 0
DWIDTH 11 0
BBX 11 17 1 -4
BITMAP
ffe0
ce60
8e20
0e00
1c00
1c00
1c00
1c00
1800
3800
3800
3800
7c00
0600
0700
1300
0e00
ENDCHAR
STARTCHAR ssharp
ENCODING 223
SWIDTH 500 0
DWIDTH 10 0
BBX 12 17 -2 -4
BITMAP
01e0
0370
0670
0670
06e0
0e80
0ec0
0ce0
0ce0
1ce0
1ce0
19c0
1b80
1800
d800
d800
7000
ENDCHAR
STARTCHAR racute
ENCODING 224
SWIDTH 389 0
DWIDTH 6 0
BBX 8 13 0 0
BITMAP
07
0e
18
00
ee
7e
70
70
70
60
e0
e0
e0
ENDCHAR
STARTCHAR aacute
ENCODING 225
SWIDTH 500 0
DWIDTH 10 0
BBX 10 13 0 0
BITMAP
0380
0700
0c00
0000
1e80
7b80
7380
e380
e300
e700
e700
6f40
3b80
ENDCHAR
STARTCHAR acircumflex
ENCODING 226
SWIDTH 500 0
DWIDTH 10 0
BBX 10 13 0 0
BITMAP
0600
0f00
1980
0000
1e80
7b80
7380
e380
e300
e700
e700
6f40
3b80
ENDCHAR
STARTCHAR abreve
ENCODING 227
SWIDTH 500 0
DWIDTH 10 0
BBX 10 13 0 0
BITMAP
2200
3600
1c00
0000
1e80
7b80
7380
e380
e300
e700
e700
6f40
3b80
ENDCHAR
STARTCHAR adiaeresis
ENCODING 228
SWIDTH 500 0
DWIDTH 10 0
BBX 10 12 0 0
BITMAP
1980
1980
0000
1e80
7b80
7380
e380
e300
e700
e700
6f40
3b80
ENDCHAR
STARTCHAR lacute
ENCODING 229
SWIDTH 278 0
DWIDTH 5 0
BBX 8 18 0 0
BITMAP
07
0e
18
00
78
38
38
30
70
70
70
70
60
e0
e0
e0
e8
70
ENDCHAR
STARTCHAR cacute
ENCODING 230
SWIDTH 444 0
DWIDTH 8 0
BBX 9 13 0 0
BITMAP
0380
0700
0c00
0000
1f00
7b00
6000
e000
e000
e000
e000
7600
3c00
ENDCHAR
STARTCHAR ccedilla
ENCODING 231
SWIDTH 444 0
DWIDTH 8 0
BBX 8 13 0 -4
BITMAP
1f
7b
60
e0
e0
e0
e0
76
3c
18
1c
4c
38
ENDCHAR
STARTCHAR ccaron
ENCODING 232
SWIDTH 444 0
DWIDTH 8 0
BBX 8 13 0 0
BITMAP
33
1e
0c
00
1f
7b
60
e0
e0
e0
e0
76
3c
ENDCHAR
STARTCHAR eacute
ENCODING 233
SWIDTH 444 0
DWIDTH 9 0
BBX 9 13 0 0
BITMAP
0380
0700
0c00
0000
1e00
7700
6700
e700
ee00
f800
e300
f600
7c00
ENDCHAR
STARTCHAR eogonek
ENCODING 234
SWIDTH 444 0
DWIDTH 9 0
BBX 8 13 0 -4
BITMAP
1e
77
67
e7
ee
f8
e3
f6
7c
30
60
7c
30
ENDCHAR
STARTCHAR ediaeresis
ENCODING 235
SWIDTH 444 0
DWIDTH 9 0
BBX 9 12 0 0
BITMAP
1980
1980
0000
1e00
7700
6700
e600
ee00
f800
e300
f600
7c00
ENDCHAR
STARTCHAR ecaron
ENCODING 236
SWIDTH 444 0
DWIDTH 9 0
BBX 8 13 0 0
BITMAP
33
1e
0c
00
1e
77
67
e7
ee
f8
e3
f6
7c
ENDCHAR
STARTCHAR iacute
ENCODING 237
SWIDTH 278 0
DWIDTH 5 0
BBX 5 13 0 0
BITMAP
38
70
c0
00
f0
70
70
60
60
e0
e0
f0
60
ENDCHAR
STARTCHAR icircumflex
ENCODING 238
SWIDTH 278 0
DWIDTH 5 0
BBX 6 13 0 0
BITMAP
30
78
cc
00
f0
70
70
60
60
e0
e0
f0
60
ENDCHAR
STARTCHAR dcaron
ENCODING 239
SWIDTH 668 0
DWIDTH 13 0
BBX 14 15 0 0
BITMAP
001c
03dc
01cc
01c8
0190
0380
1b80
7780
6380
e300
e300
e700
e700
ef40
7b80
ENDCHAR
STARTCHAR dstroke
ENCODING 240
SWIDTH 617 0
DWIDTH 12 0
BBX 13 14 0 0
BITMAP
03c0
01c0
0ff8
0180
0380
1b80
7780
6380
e300
e300
e700
e700
ef40
7b80
ENDCHAR
STARTCHAR nacute
ENCODING 241
SWIDTH 556 0
DWIDTH 10 0
BBX 10 13 0 0
BITMAP
0380
0700
0c00
0000
f700
7b80
7380
7380
7380
6300
e700
e740
e380
ENDCHAR
STARTCHAR ncaron
ENCODING 242
SWIDTH 556 0
DWIDTH 10 0
BBX 10 13 0 0
BITMAP
3300
1e00
0c00
0000
f700
7b80
7380
7380
7380
6300
e700
e740
e380
ENDCHAR
STARTCHAR oacute
ENCODING 243
SWIDTH 500 0
DWIDTH 10 0
BBX 9 13 0 0
BITMAP
0700
0e00
1800
0000
1f00
7380
6380
e380
e380
e380
e300
e700
7c00
ENDCHAR
STARTCHAR ocircumflex
ENCODING 244
SWIDTH 500 0
DWIDTH 10 0
BBX 9 13 0 0
BITMAP
0c00
1e00
3300
0000
1f00
7380
6380
e380
e380
e380
e300
e700
7c00
ENDCHAR
STARTCHAR odoubleacute
ENCODING 245
SWIDTH 500 0
DWIDTH 10 0
BBX 10 13 0 0
BITMAP
1dc0
1980
3300
0000
1f00
7380
6380
e380
e380
e380
e300
e700
7c00
ENDCHAR
STARTCHAR odiaeresis
ENCODING 246
SWIDTH 500 0
DWIDTH 10 0
BBX 9 12 0 0
BITMAP
3300
3300
0000
1f00
7380
6380
e380
e380
e380
e300
e700
7c00
ENDCHAR
STARTCHAR division
ENCODING 247
SWIDTH 570 0
DWIDTH 10 0
BBX 8 9 1 1
BITMAP
18
18
00
ff
ff
ff
00
18
18
ENDCHAR
STARTCHAR rcaron
ENCODING 248
SWIDTH 389 0
DWIDTH 6 0
BBX 7 13 0 0
BITMAP
66
3c
18
00
ee
7e
70
70
70
60
e0
e0
e0
ENDCHAR
STARTCHAR uring
ENCODING 249
SWIDTH 556 0
DWIDTH 10 0
BBX 10 14 0 0
BITMAP
1c00
3600
3600
1c00
0000
f380
7380
7380
6300
6700
e700
ef00
fb40
7380
ENDCHAR
STARTCHAR uacute
ENCODING 250
SWIDTH 556 0
DWIDTH 10 0
BBX 10 13 0 0
BITMAP
0700
0e00
1800
0000
f380
7380
7300
6300
6700
e700
ef00
fb40
7380
ENDCHAR
STARTCHAR udoubleacute
ENCODING 251
SWIDTH 556 0
DWIDTH 10 0
BBX 10 13 0 0
BITMAP
1dc0
1980
3300
0000
f380
7380
7380
6300
6700
e700
ef00
fb40
7380
ENDCHAR
STARTCHAR udiaeresis
ENCODING 252
SWIDTH 556 0
DWIDTH 10 0
BBX 10 12 0 0
BITMAP
3300
3300
0000
f380
7380
7300
6300
6700
e700
ef00
fb40
7380
ENDCHAR
STARTCHAR yacute
ENCODING 253
SWIDTH 444 0
DWIDTH 7 0
BBX 10 17 -2 -4
BITMAP
01c0
0380
0600
0000
7b80
3980
3980
3900
1900
1b00
1e00
0e00
0c00
0c00
c800
d800
7000
ENDCHAR
STARTCHAR tcedilla
ENCODING 254
SWIDTH 278 0
DWIDTH 6 0
BBX 6 15 0 -4
BITMAP
30
70
fc
70
70
70
60
e0
e0
e8
70
30
38
98
70
ENDCHAR
STARTCHAR abovedot
ENCODING 255
SWIDTH 333 0
DWIDTH 6 0
BBX 2 2 2 11
BITMAP
c0
c0
ENDCHAR
ENDFONT
